/* XPM */
static char *result[] = {
/* columns rows colors chars-per-pixel */
"16 16 5 1 ",
"  c black",
". c #B71C1C",
"X c #D50000",
"o c #EEFF41",
"O c white",
/* pixels */
"XXXXXXXXXXXXXXXX",
"XXXXooooooooXXXX",
"XXXXoXXXXXXoXXXX",
"XXXXoXXXXXXoXXXX",
"XXXXoXXXXXXoXXXX",
"X   o    X o X  ",
"    o      o    ",
"  ..oOOOOO.o . .",
". ..o  X  Oo.. .",
"....oOOOOO.o....",
"    o      o    ",
"    o      o    ",
" XX oXXXX XoX X ",
" XX oXXXXXXoX XX",
"XXXXooooooooXXXX",
"XXXXXXXXXXXXXXXX"
};
