/* XPM */
static char *result[] = {
/* columns rows colors chars-per-pixel */
"16 16 5 1 ",
"  c black",
". c #B71C1C",
"X c #D50000",
"o c #EEFF41",
"O c white",
/* pixels */
"XXXXXXXXXXXXXXXX",
"XXXXXXXoooXXXXXX",
"XXXXXXooooXXXXXX",
"XXXXXooXooXXXXXX",
"XXXXooXXooXXXXXX",
"X  oo   oo   X  ",
"        oo      ",
"  ...OOOoo.. . .",
". ..O  XooO... .",
".....OOOoo......",
"        oo      ",
"        oo      ",
" XXoooooooooo X ",
" XXoooooooooo XX",
"XXXXXXXXXXXXXXXX",
"XXXXXXXXXXXXXXXX"
};
