/* XPM */
static char *result[] = {
/* columns rows colors chars-per-pixel */
"16 16 5 1 ",
"  c black",
". c #B71C1C",
"X c #D50000",
"o c #EEFF41",
"O c white",
/* pixels */
"XXXXXooooXXXXXXX",
"XXXXooooooXXXXXX",
"XXXooXXXXooXXXXX",
"XXXooXXXXXooXXXX",
"XXXoXXXXXXooXXXX",
"X        Xoo X  ",
"         oo     ",
"  ...OOOoo.. . .",
". ..O  oo O... .",
".....OooOO......",
"     oo         ",
"    oo          ",
" XXooXXXX XXX X ",
" XXoooooooooo XX",
"XXXXXXXXXXXXXXXX",
"XXXXXXXXXXXXXXXX"
};
