/* XPM */
static char *result[] = {
/* columns rows colors chars-per-pixel */
"16 16 5 1 ",
"  c black",
". c #B71C1C",
"X c #D50000",
"o c #EEFF41",
"O c white",
/* pixels */
"XXXXXXXXXXXXXXXX",
"XXXXXXXXXooXXXXX",
"XXXXXXXXooXXXXXX",
"XXXXXXXooXXXXXXX",
"XXXXXXooXXXXXXXX",
"X    oo  X   X  ",
"    oo  oo      ",
"  .ooOOOoo.. . .",
". .oO  XooO... .",
"...oooooooooo...",
"   oooooooooo   ",
"        oo      ",
" XX XXXXooXXX X ",
" XXXXXXXooXXX XX",
"XXXXXXXXXXXXXXXX",
"XXXXXXXXXXXXXXXX"
};
