/* XPM */
static char *_83e6ed508c34f45a3f49d911a788a69hFTs0RpZC9I0lXvq[] = {
/* columns rows colors chars-per-pixel */
"16 16 5 1 ",
"  c black",
". c #B71C1C",
"X c #D50000",
"o c #EEFF41",
"O c white",
/* pixels */
"XXXXXXXXXXXXXXXX",
"XXXoooooooooXXXX",
"XXXoXXXXXXXXXXXX",
"XXXoXXXXXXXXXXXX",
"XXXoXXXXXXXXXXXX",
"X  o     X   X  ",
"   oooooooo     ",
"  ...OOOOO.o . .",
". ..O  X  O.o. .",
".....OOOOO...o..",
"             o  ",
"             o  ",
" XX XXXXX XXo X ",
" XXoooooooooX XX",
"XXXXXXXXXXXXXXXX",
"XXXXXXXXXXXXXXXX"
};
