/* XPM */
static char *result[] = {
/* columns rows colors chars-per-pixel */
"16 16 5 1 ",
"  c black",
". c #B71C1C",
"X c #D50000",
"o c #EEFF41",
"O c white",
/* pixels */
"XXXXXXXXXXXXXXXX",
"XXXoooooooooooXX",
"XXXXXXXXXXXXoXXX",
"XXXXXXXXXXXooXXX",
"XXXXXXXXXXooXXXX",
"X        oo  X  ",
"        oo      ",
"  ...OOOoO.. . .",
". ..ooooooooo. .",
".....OooOO......",
"      o         ",
"      o         ",
" XX XooXX XXX X ",
" XXXXoXXX XXX XX",
"XXXXXoXXXXXXXXXX",
"XXXXXoXXXXXXXXXX"
};
